<mxfile host="app.diagrams.net" modified="2024-01-19T05:43:29.717Z" agent="Mozilla/5.0 (Windows NT 10.0; Win64; x64) AppleWebKit/537.36 (KHTML, like Gecko) Chrome/120.0.0.0 Safari/537.36" version="22.1.21" etag="U8JLUa-rY4llp8loV8h0" type="github">
  <diagram name="페이지-1" id="8wzVMI-fFdZHt3961dAr">
    <mxGraphModel>
      <root>
        <mxCell id="0" />
        <mxCell id="1" parent="0" />
      </root>
    </mxGraphModel>
  </diagram>
</mxfile>
